<svg xmlns="http://www.w3.org/2000/svg" viewBox="0 0 57 57" shape-rendering="crispEdges"><rect width="57" height="57" fill="#fff"/><g fill="#000"><rect x="4" y="4" width="7" height="1"/><rect x="15" y="4" width="2" height="1"/><rect x="18" y="4" width="1" height="1"/><rect x="22" y="4" width="1" height="1"/><rect x="24" y="4" width="3" height="1"/><rect x="28" y="4" width="3" height="1"/><rect x="32" y="4" width="6" height="1"/><rect x="40" y="4" width="2" height="1"/><rect x="44" y="4" width="1" height="1"/><rect x="46" y="4" width="7" height="1"/><rect x="4" y="5" width="1" height="1"/><rect x="10" y="5" width="1" height="1"/><rect x="14" y="5" width="1" height="1"/><rect x="16" y="5" width="2" height="1"/><rect x="19" y="5" width="3" height="1"/><rect x="23" y="5" width="1" height="1"/><rect x="26" y="5" width="1" height="1"/><rect x="29" y="5" width="2" height="1"/><rect x="32" y="5" width="4" height="1"/><rect x="37" y="5" width="1" height="1"/><rect x="39" y="5" width="1" height="1"/><rect x="41" y="5" width="4" height="1"/><rect x="46" y="5" width="1" height="1"/><rect x="52" y="5" width="1" height="1"/><rect x="4" y="6" width="1" height="1"/><rect x="6" y="6" width="3" height="1"/><rect x="10" y="6" width="1" height="1"/><rect x="12" y="6" width="1" height="1"/><rect x="14" y="6" width="5" height="1"/><rect x="20" y="6" width="3" height="1"/><rect x="24" y="6" width="2" height="1"/><rect x="27" y="6" width="2" height="1"/><rect x="30" y="6" width="2" height="1"/><rect x="33" y="6" width="1" height="1"/><rect x="36" y="6" width="1" height="1"/><rect x="38" y="6" width="1" height="1"/><rect x="40" y="6" width="1" height="1"/><rect x="43" y="6" width="2" height="1"/><rect x="46" y="6" width="1" height="1"/><rect x="48" y="6" width="3" height="1"/><rect x="52" y="6" width="1" height="1"/><rect x="4" y="7" width="1" height="1"/><rect x="6" y="7" width="3" height="1"/><rect x="10" y="7" width="1" height="1"/><rect x="13" y="7" width="2" height="1"/><rect x="16" y="7" width="2" height="1"/><rect x="19" y="7" width="1" height="1"/><rect x="21" y="7" width="1" height="1"/><rect x="23" y="7" width="1" height="1"/><rect x="25" y="7" width="3" height="1"/><rect x="29" y="7" width="1" height="1"/><rect x="31" y="7" width="1" height="1"/><rect x="33" y="7" width="5" height="1"/><rect x="39" y="7" width="1" height="1"/><rect x="41" y="7" width="1" height="1"/><rect x="43" y="7" width="1" height="1"/><rect x="46" y="7" width="1" height="1"/><rect x="48" y="7" width="3" height="1"/><rect x="52" y="7" width="1" height="1"/><rect x="4" y="8" width="1" height="1"/><rect x="6" y="8" width="3" height="1"/><rect x="10" y="8" width="1" height="1"/><rect x="15" y="8" width="1" height="1"/><rect x="17" y="8" width="3" height="1"/><rect x="21" y="8" width="3" height="1"/><rect x="25" y="8" width="6" height="1"/><rect x="32" y="8" width="1" height="1"/><rect x="34" y="8" width="3" height="1"/><rect x="38" y="8" width="1" height="1"/><rect x="40" y="8" width="1" height="1"/><rect x="46" y="8" width="1" height="1"/><rect x="48" y="8" width="3" height="1"/><rect x="52" y="8" width="1" height="1"/><rect x="4" y="9" width="1" height="1"/><rect x="10" y="9" width="1" height="1"/><rect x="15" y="9" width="2" height="1"/><rect x="18" y="9" width="4" height="1"/><rect x="23" y="9" width="2" height="1"/><rect x="26" y="9" width="1" height="1"/><rect x="30" y="9" width="2" height="1"/><rect x="36" y="9" width="2" height="1"/><rect x="41" y="9" width="2" height="1"/><rect x="46" y="9" width="1" height="1"/><rect x="52" y="9" width="1" height="1"/><rect x="4" y="10" width="7" height="1"/><rect x="12" y="10" width="1" height="1"/><rect x="14" y="10" width="1" height="1"/><rect x="16" y="10" width="1" height="1"/><rect x="18" y="10" width="1" height="1"/><rect x="20" y="10" width="1" height="1"/><rect x="22" y="10" width="1" height="1"/><rect x="24" y="10" width="1" height="1"/><rect x="26" y="10" width="1" height="1"/><rect x="28" y="10" width="1" height="1"/><rect x="30" y="10" width="1" height="1"/><rect x="32" y="10" width="1" height="1"/><rect x="34" y="10" width="1" height="1"/><rect x="36" y="10" width="1" height="1"/><rect x="38" y="10" width="1" height="1"/><rect x="40" y="10" width="1" height="1"/><rect x="42" y="10" width="1" height="1"/><rect x="44" y="10" width="1" height="1"/><rect x="46" y="10" width="7" height="1"/><rect x="12" y="11" width="2" height="1"/><rect x="15" y="11" width="4" height="1"/><rect x="20" y="11" width="1" height="1"/><rect x="24" y="11" width="3" height="1"/><rect x="30" y="11" width="1" height="1"/><rect x="34" y="11" width="2" height="1"/><rect x="39" y="11" width="1" height="1"/><rect x="41" y="11" width="2" height="1"/><rect x="4" y="12" width="3" height="1"/><rect x="8" y="12" width="5" height="1"/><rect x="18" y="12" width="2" height="1"/><rect x="22" y="12" width="1" height="1"/><rect x="24" y="12" width="1" height="1"/><rect x="26" y="12" width="5" height="1"/><rect x="32" y="12" width="1" height="1"/><rect x="34" y="12" width="2" height="1"/><rect x="37" y="12" width="1" height="1"/><rect x="40" y="12" width="2" height="1"/><rect x="43" y="12" width="1" height="1"/><rect x="45" y="12" width="2" height="1"/><rect x="50" y="12" width="1" height="1"/><rect x="4" y="13" width="1" height="1"/><rect x="6" y="13" width="1" height="1"/><rect x="9" y="13" width="1" height="1"/><rect x="12" y="13" width="1" height="1"/><rect x="14" y="13" width="2" height="1"/><rect x="21" y="13" width="1" height="1"/><rect x="23" y="13" width="1" height="1"/><rect x="25" y="13" width="2" height="1"/><rect x="29" y="13" width="1" height="1"/><rect x="31" y="13" width="3" height="1"/><rect x="35" y="13" width="1" height="1"/><rect x="38" y="13" width="4" height="1"/><rect x="43" y="13" width="1" height="1"/><rect x="46" y="13" width="2" height="1"/><rect x="49" y="13" width="1" height="1"/><rect x="51" y="13" width="1" height="1"/><rect x="4" y="14" width="1" height="1"/><rect x="6" y="14" width="6" height="1"/><rect x="17" y="14" width="1" height="1"/><rect x="20" y="14" width="2" height="1"/><rect x="23" y="14" width="1" height="1"/><rect x="25" y="14" width="2" height="1"/><rect x="28" y="14" width="1" height="1"/><rect x="30" y="14" width="1" height="1"/><rect x="32" y="14" width="1" height="1"/><rect x="36" y="14" width="1" height="1"/><rect x="39" y="14" width="1" height="1"/><rect x="41" y="14" width="1" height="1"/><rect x="44" y="14" width="1" height="1"/><rect x="46" y="14" width="1" height="1"/><rect x="50" y="14" width="3" height="1"/><rect x="5" y="15" width="2" height="1"/><rect x="8" y="15" width="1" height="1"/><rect x="12" y="15" width="2" height="1"/><rect x="15" y="15" width="4" height="1"/><rect x="21" y="15" width="2" height="1"/><rect x="25" y="15" width="3" height="1"/><rect x="29" y="15" width="1" height="1"/><rect x="31" y="15" width="1" height="1"/><rect x="33" y="15" width="1" height="1"/><rect x="35" y="15" width="3" height="1"/><rect x="40" y="15" width="1" height="1"/><rect x="42" y="15" width="1" height="1"/><rect x="44" y="15" width="2" height="1"/><rect x="47" y="15" width="1" height="1"/><rect x="51" y="15" width="2" height="1"/><rect x="8" y="16" width="1" height="1"/><rect x="10" y="16" width="1" height="1"/><rect x="13" y="16" width="5" height="1"/><rect x="19" y="16" width="3" height="1"/><rect x="23" y="16" width="2" height="1"/><rect x="28" y="16" width="3" height="1"/><rect x="32" y="16" width="1" height="1"/><rect x="34" y="16" width="1" height="1"/><rect x="36" y="16" width="1" height="1"/><rect x="38" y="16" width="1" height="1"/><rect x="40" y="16" width="1" height="1"/><rect x="46" y="16" width="1" height="1"/><rect x="48" y="16" width="1" height="1"/><rect x="50" y="16" width="2" height="1"/><rect x="4" y="17" width="1" height="1"/><rect x="6" y="17" width="4" height="1"/><rect x="13" y="17" width="1" height="1"/><rect x="17" y="17" width="1" height="1"/><rect x="19" y="17" width="1" height="1"/><rect x="21" y="17" width="1" height="1"/><rect x="23" y="17" width="1" height="1"/><rect x="25" y="17" width="1" height="1"/><rect x="27" y="17" width="1" height="1"/><rect x="29" y="17" width="2" height="1"/><rect x="32" y="17" width="2" height="1"/><rect x="35" y="17" width="1" height="1"/><rect x="37" y="17" width="1" height="1"/><rect x="39" y="17" width="6" height="1"/><rect x="47" y="17" width="1" height="1"/><rect x="49" y="17" width="1" height="1"/><rect x="51" y="17" width="1" height="1"/><rect x="5" y="18" width="1" height="1"/><rect x="7" y="18" width="1" height="1"/><rect x="10" y="18" width="4" height="1"/><rect x="15" y="18" width="1" height="1"/><rect x="18" y="18" width="3" height="1"/><rect x="22" y="18" width="5" height="1"/><rect x="28" y="18" width="1" height="1"/><rect x="30" y="18" width="3" height="1"/><rect x="34" y="18" width="3" height="1"/><rect x="40" y="18" width="4" height="1"/><rect x="48" y="18" width="1" height="1"/><rect x="50" y="18" width="1" height="1"/><rect x="52" y="18" width="1" height="1"/><rect x="7" y="19" width="3" height="1"/><rect x="11" y="19" width="1" height="1"/><rect x="15" y="19" width="1" height="1"/><rect x="19" y="19" width="1" height="1"/><rect x="22" y="19" width="2" height="1"/><rect x="25" y="19" width="1" height="1"/><rect x="27" y="19" width="1" height="1"/><rect x="31" y="19" width="2" height="1"/><rect x="34" y="19" width="2" height="1"/><rect x="39" y="19" width="1" height="1"/><rect x="44" y="19" width="3" height="1"/><rect x="48" y="19" width="2" height="1"/><rect x="51" y="19" width="1" height="1"/><rect x="6" y="20" width="2" height="1"/><rect x="10" y="20" width="3" height="1"/><rect x="18" y="20" width="1" height="1"/><rect x="22" y="20" width="6" height="1"/><rect x="29" y="20" width="1" height="1"/><rect x="31" y="20" width="4" height="1"/><rect x="36" y="20" width="3" height="1"/><rect x="40" y="20" width="3" height="1"/><rect x="44" y="20" width="2" height="1"/><rect x="48" y="20" width="1" height="1"/><rect x="50" y="20" width="3" height="1"/><rect x="4" y="21" width="2" height="1"/><rect x="7" y="21" width="3" height="1"/><rect x="13" y="21" width="5" height="1"/><rect x="20" y="21" width="3" height="1"/><rect x="27" y="21" width="2" height="1"/><rect x="31" y="21" width="3" height="1"/><rect x="35" y="21" width="1" height="1"/><rect x="37" y="21" width="1" height="1"/><rect x="41" y="21" width="6" height="1"/><rect x="49" y="21" width="1" height="1"/><rect x="51" y="21" width="1" height="1"/><rect x="4" y="22" width="1" height="1"/><rect x="8" y="22" width="1" height="1"/><rect x="10" y="22" width="2" height="1"/><rect x="13" y="22" width="2" height="1"/><rect x="18" y="22" width="1" height="1"/><rect x="22" y="22" width="1" height="1"/><rect x="24" y="22" width="2" height="1"/><rect x="27" y="22" width="1" height="1"/><rect x="29" y="22" width="6" height="1"/><rect x="36" y="22" width="2" height="1"/><rect x="42" y="22" width="1" height="1"/><rect x="46" y="22" width="1" height="1"/><rect x="50" y="22" width="1" height="1"/><rect x="4" y="23" width="1" height="1"/><rect x="6" y="23" width="1" height="1"/><rect x="8" y="23" width="1" height="1"/><rect x="11" y="23" width="1" height="1"/><rect x="16" y="23" width="1" height="1"/><rect x="19" y="23" width="1" height="1"/><rect x="23" y="23" width="1" height="1"/><rect x="25" y="23" width="1" height="1"/><rect x="27" y="23" width="5" height="1"/><rect x="33" y="23" width="1" height="1"/><rect x="35" y="23" width="1" height="1"/><rect x="37" y="23" width="1" height="1"/><rect x="39" y="23" width="2" height="1"/><rect x="42" y="23" width="2" height="1"/><rect x="46" y="23" width="2" height="1"/><rect x="49" y="23" width="1" height="1"/><rect x="51" y="23" width="2" height="1"/><rect x="4" y="24" width="1" height="1"/><rect x="10" y="24" width="4" height="1"/><rect x="18" y="24" width="1" height="1"/><rect x="20" y="24" width="1" height="1"/><rect x="22" y="24" width="1" height="1"/><rect x="24" y="24" width="2" height="1"/><rect x="28" y="24" width="2" height="1"/><rect x="34" y="24" width="1" height="1"/><rect x="38" y="24" width="1" height="1"/><rect x="40" y="24" width="3" height="1"/><rect x="44" y="24" width="1" height="1"/><rect x="46" y="24" width="1" height="1"/><rect x="48" y="24" width="1" height="1"/><rect x="50" y="24" width="1" height="1"/><rect x="7" y="25" width="3" height="1"/><rect x="12" y="25" width="5" height="1"/><rect x="20" y="25" width="1" height="1"/><rect x="24" y="25" width="1" height="1"/><rect x="26" y="25" width="2" height="1"/><rect x="31" y="25" width="1" height="1"/><rect x="33" y="25" width="1" height="1"/><rect x="36" y="25" width="6" height="1"/><rect x="44" y="25" width="1" height="1"/><rect x="46" y="25" width="3" height="1"/><rect x="51" y="25" width="1" height="1"/><rect x="6" y="26" width="1" height="1"/><rect x="8" y="26" width="6" height="1"/><rect x="15" y="26" width="3" height="1"/><rect x="21" y="26" width="2" height="1"/><rect x="25" y="26" width="7" height="1"/><rect x="34" y="26" width="1" height="1"/><rect x="36" y="26" width="2" height="1"/><rect x="39" y="26" width="1" height="1"/><rect x="43" y="26" width="6" height="1"/><rect x="52" y="26" width="1" height="1"/><rect x="4" y="27" width="1" height="1"/><rect x="6" y="27" width="3" height="1"/><rect x="12" y="27" width="3" height="1"/><rect x="16" y="27" width="3" height="1"/><rect x="20" y="27" width="3" height="1"/><rect x="24" y="27" width="3" height="1"/><rect x="30" y="27" width="2" height="1"/><rect x="33" y="27" width="1" height="1"/><rect x="35" y="27" width="1" height="1"/><rect x="37" y="27" width="1" height="1"/><rect x="40" y="27" width="5" height="1"/><rect x="48" y="27" width="2" height="1"/><rect x="51" y="27" width="1" height="1"/><rect x="6" y="28" width="1" height="1"/><rect x="8" y="28" width="1" height="1"/><rect x="10" y="28" width="1" height="1"/><rect x="12" y="28" width="1" height="1"/><rect x="14" y="28" width="1" height="1"/><rect x="18" y="28" width="1" height="1"/><rect x="20" y="28" width="4" height="1"/><rect x="25" y="28" width="2" height="1"/><rect x="28" y="28" width="1" height="1"/><rect x="30" y="28" width="1" height="1"/><rect x="32" y="28" width="2" height="1"/><rect x="36" y="28" width="2" height="1"/><rect x="39" y="28" width="6" height="1"/><rect x="46" y="28" width="1" height="1"/><rect x="48" y="28" width="1" height="1"/><rect x="52" y="28" width="1" height="1"/><rect x="5" y="29" width="4" height="1"/><rect x="12" y="29" width="2" height="1"/><rect x="16" y="29" width="3" height="1"/><rect x="20" y="29" width="3" height="1"/><rect x="24" y="29" width="1" height="1"/><rect x="26" y="29" width="1" height="1"/><rect x="30" y="29" width="2" height="1"/><rect x="33" y="29" width="3" height="1"/><rect x="38" y="29" width="7" height="1"/><rect x="48" y="29" width="3" height="1"/><rect x="5" y="30" width="8" height="1"/><rect x="14" y="30" width="1" height="1"/><rect x="17" y="30" width="1" height="1"/><rect x="19" y="30" width="1" height="1"/><rect x="21" y="30" width="1" height="1"/><rect x="23" y="30" width="2" height="1"/><rect x="26" y="30" width="8" height="1"/><rect x="36" y="30" width="1" height="1"/><rect x="38" y="30" width="1" height="1"/><rect x="40" y="30" width="3" height="1"/><rect x="44" y="30" width="5" height="1"/><rect x="50" y="30" width="3" height="1"/><rect x="4" y="31" width="1" height="1"/><rect x="16" y="31" width="7" height="1"/><rect x="28" y="31" width="4" height="1"/><rect x="33" y="31" width="1" height="1"/><rect x="35" y="31" width="2" height="1"/><rect x="39" y="31" width="3" height="1"/><rect x="43" y="31" width="3" height="1"/><rect x="48" y="31" width="2" height="1"/><rect x="51" y="31" width="1" height="1"/><rect x="4" y="32" width="1" height="1"/><rect x="9" y="32" width="4" height="1"/><rect x="14" y="32" width="1" height="1"/><rect x="16" y="32" width="2" height="1"/><rect x="19" y="32" width="3" height="1"/><rect x="23" y="32" width="2" height="1"/><rect x="26" y="32" width="7" height="1"/><rect x="34" y="32" width="3" height="1"/><rect x="38" y="32" width="1" height="1"/><rect x="40" y="32" width="2" height="1"/><rect x="48" y="32" width="1" height="1"/><rect x="50" y="32" width="1" height="1"/><rect x="7" y="33" width="1" height="1"/><rect x="11" y="33" width="1" height="1"/><rect x="13" y="33" width="2" height="1"/><rect x="16" y="33" width="2" height="1"/><rect x="19" y="33" width="1" height="1"/><rect x="21" y="33" width="1" height="1"/><rect x="23" y="33" width="1" height="1"/><rect x="27" y="33" width="1" height="1"/><rect x="30" y="33" width="2" height="1"/><rect x="33" y="33" width="1" height="1"/><rect x="35" y="33" width="3" height="1"/><rect x="39" y="33" width="2" height="1"/><rect x="42" y="33" width="1" height="1"/><rect x="45" y="33" width="5" height="1"/><rect x="51" y="33" width="1" height="1"/><rect x="5" y="34" width="1" height="1"/><rect x="8" y="34" width="1" height="1"/><rect x="10" y="34" width="1" height="1"/><rect x="14" y="34" width="1" height="1"/><rect x="19" y="34" width="3" height="1"/><rect x="23" y="34" width="6" height="1"/><rect x="30" y="34" width="3" height="1"/><rect x="34" y="34" width="1" height="1"/><rect x="36" y="34" width="1" height="1"/><rect x="38" y="34" width="2" height="1"/><rect x="41" y="34" width="2" height="1"/><rect x="44" y="34" width="1" height="1"/><rect x="46" y="34" width="4" height="1"/><rect x="52" y="34" width="1" height="1"/><rect x="4" y="35" width="5" height="1"/><rect x="14" y="35" width="1" height="1"/><rect x="16" y="35" width="1" height="1"/><rect x="19" y="35" width="1" height="1"/><rect x="21" y="35" width="3" height="1"/><rect x="25" y="35" width="1" height="1"/><rect x="27" y="35" width="1" height="1"/><rect x="32" y="35" width="2" height="1"/><rect x="35" y="35" width="1" height="1"/><rect x="37" y="35" width="1" height="1"/><rect x="39" y="35" width="8" height="1"/><rect x="48" y="35" width="1" height="1"/><rect x="51" y="35" width="1" height="1"/><rect x="5" y="36" width="1" height="1"/><rect x="10" y="36" width="5" height="1"/><rect x="16" y="36" width="3" height="1"/><rect x="20" y="36" width="1" height="1"/><rect x="22" y="36" width="2" height="1"/><rect x="26" y="36" width="3" height="1"/><rect x="30" y="36" width="1" height="1"/><rect x="33" y="36" width="1" height="1"/><rect x="36" y="36" width="3" height="1"/><rect x="40" y="36" width="1" height="1"/><rect x="44" y="36" width="2" height="1"/><rect x="47" y="36" width="2" height="1"/><rect x="50" y="36" width="1" height="1"/><rect x="52" y="36" width="1" height="1"/><rect x="8" y="37" width="2" height="1"/><rect x="12" y="37" width="1" height="1"/><rect x="14" y="37" width="1" height="1"/><rect x="16" y="37" width="1" height="1"/><rect x="19" y="37" width="1" height="1"/><rect x="21" y="37" width="1" height="1"/><rect x="25" y="37" width="3" height="1"/><rect x="29" y="37" width="3" height="1"/><rect x="33" y="37" width="1" height="1"/><rect x="35" y="37" width="1" height="1"/><rect x="37" y="37" width="5" height="1"/><rect x="47" y="37" width="3" height="1"/><rect x="52" y="37" width="1" height="1"/><rect x="4" y="38" width="1" height="1"/><rect x="8" y="38" width="4" height="1"/><rect x="16" y="38" width="1" height="1"/><rect x="18" y="38" width="1" height="1"/><rect x="20" y="38" width="1" height="1"/><rect x="22" y="38" width="1" height="1"/><rect x="24" y="38" width="1" height="1"/><rect x="26" y="38" width="3" height="1"/><rect x="32" y="38" width="1" height="1"/><rect x="34" y="38" width="1" height="1"/><rect x="36" y="38" width="2" height="1"/><rect x="39" y="38" width="4" height="1"/><rect x="45" y="38" width="1" height="1"/><rect x="48" y="38" width="1" height="1"/><rect x="5" y="39" width="1" height="1"/><rect x="7" y="39" width="1" height="1"/><rect x="11" y="39" width="1" height="1"/><rect x="25" y="39" width="3" height="1"/><rect x="29" y="39" width="1" height="1"/><rect x="31" y="39" width="1" height="1"/><rect x="33" y="39" width="5" height="1"/><rect x="39" y="39" width="4" height="1"/><rect x="46" y="39" width="2" height="1"/><rect x="49" y="39" width="1" height="1"/><rect x="8" y="40" width="1" height="1"/><rect x="10" y="40" width="5" height="1"/><rect x="16" y="40" width="1" height="1"/><rect x="18" y="40" width="1" height="1"/><rect x="20" y="40" width="1" height="1"/><rect x="22" y="40" width="1" height="1"/><rect x="24" y="40" width="2" height="1"/><rect x="28" y="40" width="1" height="1"/><rect x="30" y="40" width="4" height="1"/><rect x="36" y="40" width="1" height="1"/><rect x="38" y="40" width="1" height="1"/><rect x="40" y="40" width="3" height="1"/><rect x="44" y="40" width="1" height="1"/><rect x="46" y="40" width="1" height="1"/><rect x="48" y="40" width="1" height="1"/><rect x="50" y="40" width="3" height="1"/><rect x="4" y="41" width="2" height="1"/><rect x="7" y="41" width="1" height="1"/><rect x="9" y="41" width="1" height="1"/><rect x="12" y="41" width="2" height="1"/><rect x="16" y="41" width="1" height="1"/><rect x="20" y="41" width="1" height="1"/><rect x="24" y="41" width="1" height="1"/><rect x="26" y="41" width="1" height="1"/><rect x="28" y="41" width="1" height="1"/><rect x="30" y="41" width="2" height="1"/><rect x="37" y="41" width="1" height="1"/><rect x="39" y="41" width="1" height="1"/><rect x="44" y="41" width="1" height="1"/><rect x="46" y="41" width="2" height="1"/><rect x="49" y="41" width="1" height="1"/><rect x="51" y="41" width="1" height="1"/><rect x="5" y="42" width="1" height="1"/><rect x="9" y="42" width="3" height="1"/><rect x="13" y="42" width="1" height="1"/><rect x="17" y="42" width="1" height="1"/><rect x="29" y="42" width="1" height="1"/><rect x="31" y="42" width="1" height="1"/><rect x="38" y="42" width="1" height="1"/><rect x="40" y="42" width="2" height="1"/><rect x="44" y="42" width="1" height="1"/><rect x="48" y="42" width="1" height="1"/><rect x="50" y="42" width="1" height="1"/><rect x="5" y="43" width="3" height="1"/><rect x="11" y="43" width="2" height="1"/><rect x="14" y="43" width="1" height="1"/><rect x="16" y="43" width="1" height="1"/><rect x="18" y="43" width="1" height="1"/><rect x="20" y="43" width="1" height="1"/><rect x="22" y="43" width="1" height="1"/><rect x="24" y="43" width="1" height="1"/><rect x="26" y="43" width="1" height="1"/><rect x="28" y="43" width="1" height="1"/><rect x="32" y="43" width="1" height="1"/><rect x="35" y="43" width="1" height="1"/><rect x="37" y="43" width="1" height="1"/><rect x="39" y="43" width="1" height="1"/><rect x="42" y="43" width="1" height="1"/><rect x="44" y="43" width="6" height="1"/><rect x="4" y="44" width="3" height="1"/><rect x="10" y="44" width="1" height="1"/><rect x="12" y="44" width="1" height="1"/><rect x="16" y="44" width="3" height="1"/><rect x="21" y="44" width="3" height="1"/><rect x="25" y="44" width="8" height="1"/><rect x="34" y="44" width="3" height="1"/><rect x="40" y="44" width="3" height="1"/><rect x="44" y="44" width="5" height="1"/><rect x="52" y="44" width="1" height="1"/><rect x="12" y="45" width="2" height="1"/><rect x="15" y="45" width="1" height="1"/><rect x="17" y="45" width="2" height="1"/><rect x="20" y="45" width="2" height="1"/><rect x="23" y="45" width="2" height="1"/><rect x="26" y="45" width="1" height="1"/><rect x="30" y="45" width="1" height="1"/><rect x="33" y="45" width="2" height="1"/><rect x="37" y="45" width="1" height="1"/><rect x="41" y="45" width="4" height="1"/><rect x="48" y="45" width="1" height="1"/><rect x="51" y="45" width="1" height="1"/><rect x="4" y="46" width="7" height="1"/><rect x="12" y="46" width="1" height="1"/><rect x="15" y="46" width="1" height="1"/><rect x="17" y="46" width="1" height="1"/><rect x="20" y="46" width="2" height="1"/><rect x="26" y="46" width="1" height="1"/><rect x="28" y="46" width="1" height="1"/><rect x="30" y="46" width="1" height="1"/><rect x="32" y="46" width="3" height="1"/><rect x="36" y="46" width="4" height="1"/><rect x="41" y="46" width="2" height="1"/><rect x="44" y="46" width="1" height="1"/><rect x="46" y="46" width="1" height="1"/><rect x="48" y="46" width="3" height="1"/><rect x="4" y="47" width="1" height="1"/><rect x="10" y="47" width="1" height="1"/><rect x="12" y="47" width="1" height="1"/><rect x="15" y="47" width="1" height="1"/><rect x="17" y="47" width="3" height="1"/><rect x="21" y="47" width="2" height="1"/><rect x="26" y="47" width="1" height="1"/><rect x="30" y="47" width="1" height="1"/><rect x="33" y="47" width="2" height="1"/><rect x="37" y="47" width="1" height="1"/><rect x="39" y="47" width="1" height="1"/><rect x="41" y="47" width="1" height="1"/><rect x="44" y="47" width="1" height="1"/><rect x="48" y="47" width="1" height="1"/><rect x="50" y="47" width="2" height="1"/><rect x="4" y="48" width="1" height="1"/><rect x="6" y="48" width="3" height="1"/><rect x="10" y="48" width="1" height="1"/><rect x="12" y="48" width="2" height="1"/><rect x="15" y="48" width="3" height="1"/><rect x="19" y="48" width="3" height="1"/><rect x="23" y="48" width="8" height="1"/><rect x="32" y="48" width="1" height="1"/><rect x="34" y="48" width="1" height="1"/><rect x="37" y="48" width="2" height="1"/><rect x="40" y="48" width="1" height="1"/><rect x="42" y="48" width="1" height="1"/><rect x="44" y="48" width="5" height="1"/><rect x="50" y="48" width="1" height="1"/><rect x="52" y="48" width="1" height="1"/><rect x="4" y="49" width="1" height="1"/><rect x="6" y="49" width="3" height="1"/><rect x="10" y="49" width="1" height="1"/><rect x="13" y="49" width="1" height="1"/><rect x="15" y="49" width="1" height="1"/><rect x="17" y="49" width="1" height="1"/><rect x="19" y="49" width="1" height="1"/><rect x="21" y="49" width="1" height="1"/><rect x="23" y="49" width="1" height="1"/><rect x="25" y="49" width="1" height="1"/><rect x="28" y="49" width="2" height="1"/><rect x="34" y="49" width="1" height="1"/><rect x="37" y="49" width="2" height="1"/><rect x="41" y="49" width="1" height="1"/><rect x="44" y="49" width="4" height="1"/><rect x="49" y="49" width="2" height="1"/><rect x="52" y="49" width="1" height="1"/><rect x="4" y="50" width="1" height="1"/><rect x="6" y="50" width="3" height="1"/><rect x="10" y="50" width="1" height="1"/><rect x="12" y="50" width="5" height="1"/><rect x="18" y="50" width="3" height="1"/><rect x="22" y="50" width="4" height="1"/><rect x="28" y="50" width="1" height="1"/><rect x="30" y="50" width="1" height="1"/><rect x="38" y="50" width="2" height="1"/><rect x="43" y="50" width="3" height="1"/><rect x="49" y="50" width="4" height="1"/><rect x="4" y="51" width="1" height="1"/><rect x="10" y="51" width="1" height="1"/><rect x="12" y="51" width="1" height="1"/><rect x="15" y="51" width="1" height="1"/><rect x="17" y="51" width="1" height="1"/><rect x="19" y="51" width="1" height="1"/><rect x="22" y="51" width="2" height="1"/><rect x="26" y="51" width="2" height="1"/><rect x="29" y="51" width="1" height="1"/><rect x="31" y="51" width="1" height="1"/><rect x="33" y="51" width="1" height="1"/><rect x="35" y="51" width="1" height="1"/><rect x="38" y="51" width="2" height="1"/><rect x="42" y="51" width="2" height="1"/><rect x="51" y="51" width="2" height="1"/><rect x="4" y="52" width="7" height="1"/><rect x="12" y="52" width="1" height="1"/><rect x="14" y="52" width="1" height="1"/><rect x="17" y="52" width="1" height="1"/><rect x="20" y="52" width="1" height="1"/><rect x="22" y="52" width="1" height="1"/><rect x="26" y="52" width="1" height="1"/><rect x="30" y="52" width="1" height="1"/><rect x="33" y="52" width="1" height="1"/><rect x="36" y="52" width="1" height="1"/><rect x="39" y="52" width="1" height="1"/><rect x="42" y="52" width="4" height="1"/><rect x="48" y="52" width="1" height="1"/><rect x="52" y="52" width="1" height="1"/></g></svg>